<?xml version="1.0" encoding="utf-8"?>
<!-- Generator: Adobe Illustrator 23.1.0, SVG Export Plug-In . SVG Version: 6.00 Build 0)  -->
<svg version="1.1" id="图层_1" xmlns="http://www.w3.org/2000/svg" xmlns:xlink="http://www.w3.org/1999/xlink" x="0px" y="0px"
	 viewBox="0 0 448 512" style="enable-background:new 0 0 448 512;" xml:space="preserve">
<style type="text/css">
	.st0{fill:#FFFFFF;}
</style>
<path class="st0" d="M439.9,144.6c15.3-26.4,8.4-62.4-17-87.6c-25.2-25.3-61.2-32.3-87.6-17c-9,5.2-27.1,3.7-48.1,2
	c-50.8-4.3-127.4-10.7-207.6,69.6C-0.7,191.9,5.8,268.5,10.1,319.3c1.7,21,3.3,39.1-2,48.1C-7.3,393.8-0.3,429.8,25,455
	c16.3,16.4,37,25.1,56.8,25.1c10.9,0,21.5-2.6,30.8-8.1c9-5.2,27.1-3.7,48.1-2c50.7,4.2,127.4,10.7,207.6-69.6
	c80.3-80.3,73.8-156.9,69.6-207.7C436.2,171.8,434.7,153.7,439.9,144.6z M398.4,120.5c-12.9,22.1-10.7,48.4-8.3,76.3
	c4.2,49.3,8.8,105.2-55.7,169.7c-64.5,64.5-120.5,59.8-169.7,55.7c-27.9-2.3-54.1-4.5-76.3,8.3c-6.1,3.6-19.2,1-29.6-9.5
	c-10.4-10.3-13-23.4-9.4-29.5c12.9-22.1,10.7-48.4,8.3-76.3c-4.1-50.2-8.8-105.2,55.7-169.8c48.3-48.3,91.7-57.8,131.2-57.8
	c13.3,0,26.1,1.1,38.5,2.1c27.9,2.4,54.2,4.6,76.3-8.3c6.1-3.6,19.2-1,29.5,9.4C399.4,101.2,402,114.4,398.4,120.5z M239.5,124.1
	c2.2,8.6-3.1,17.3-11.6,19.4c-44.3,11.2-105.2,72.1-116.3,116.4c-1.9,7.2-8.4,11.2-15.5,11.2c-1.3,0-2.6-0.2-3.9-0.5
	c-8.6-1.3-13.7-10-11.6-18.5c14.2-56.3,83.3-125.4,139.6-139.6C228.8,110.4,237.3,115.5,239.5,124.1z"/>
</svg>
